<svg width="228" height="228" viewBox="0 0 228 228" fill="none" xmlns="http://www.w3.org/2000/svg">
<path d="M119.14 146.313L133.885 139.435L171.21 211.629L150.716 221.239L119.14 146.313Z" fill="#EFF4F6"/>
<path d="M125.502 159.346L127.735 159.633L130.318 165.182C134.341 173.836 136.405 183.329 135.981 192.876C135.653 200.137 134.055 205.856 131.789 212.139L126.063 228L106.966 221.048C106.966 221.048 121.035 174.219 117.944 184.499C114.853 194.779 125.502 159.335 125.502 159.335V159.346Z" fill="#EFF4F6"/>
<path d="M94.7402 140.837L110.015 146.45L85.5731 224.003L64.3174 216.242L94.7402 140.837Z" fill="#EFF4F6"/>
<path d="M90.0614 154.572L91.4481 156.358L89.3628 162.12C86.113 171.103 80.8944 179.278 73.8656 185.721C68.5199 190.622 63.3648 193.524 57.3416 196.362L42.1303 203.517L33.5137 185.04C33.5137 185.04 76.4273 161.918 67.0062 167C57.5851 172.081 90.0614 154.572 90.0614 154.572Z" fill="#EFF4F6"/>
<path d="M81.3389 119.65L88.1878 134.459L16.3016 171.944L6.73236 151.362L81.3389 119.65Z" fill="#EFF4F6"/>
<path d="M68.3611 126.039L68.0753 128.283L62.5497 130.876C53.9331 134.916 44.4803 136.989 34.9745 136.564C27.7446 136.234 22.0496 134.629 15.7936 132.354L0 126.603L6.92291 107.425C6.92291 107.425 53.552 121.553 43.3158 118.449C33.0797 115.345 68.3717 126.039 68.3717 126.039H68.3611Z" fill="#EFF4F6"/>
<path d="M86.7905 95.1463L81.2014 110.487L3.98016 85.94L11.697 64.5933L86.7905 95.1463Z" fill="#EFF4F6"/>
<path d="M73.114 90.4473L71.3357 91.8399L65.5983 89.7456C56.6536 86.482 48.5133 81.2409 42.0985 74.1821C37.2186 68.8135 34.3288 63.6362 31.5025 57.5873L24.3784 42.3107L42.776 33.6572C42.776 33.6572 65.7995 76.7547 60.7396 67.2933C55.6797 57.8318 73.114 90.4473 73.114 90.4473Z" fill="#EFF4F6"/>
<path d="M107.887 81.6875L93.1418 88.5657L55.8173 16.3715L76.3108 6.76123L107.887 81.6875Z" fill="#EFF4F6"/>
<path d="M101.526 68.6541L99.292 68.367L96.7091 62.8177C92.6866 54.1642 90.6225 44.6709 91.0459 35.1244C91.374 27.8635 92.9724 22.1441 95.2377 15.8612L100.964 0L120.061 6.95258C120.061 6.95258 105.993 53.7815 109.084 43.5015C112.175 33.2214 101.526 68.6647 101.526 68.6647V68.6541Z" fill="#EFF4F6"/>
<path d="M132.287 87.1623L117.012 81.5492L141.454 3.99707L162.71 11.747L132.287 87.1623Z" fill="#EFF4F6"/>
<path d="M136.966 73.4274L135.579 71.6414L137.664 65.8795C140.914 56.8964 146.133 48.7213 153.162 42.279C158.507 37.3781 163.662 34.4759 169.686 31.6375L184.897 24.4829L193.513 42.9593C193.513 42.9593 150.6 66.0815 160.021 60.9999C169.442 55.9184 136.966 73.4274 136.966 73.4274Z" fill="#EFF4F6"/>
<path d="M145.688 108.35L138.839 93.541L210.725 56.0566L220.295 76.638L145.688 108.35Z" fill="#EFF4F6"/>
<path d="M158.666 101.961L158.952 99.7174L164.477 97.1235C173.094 93.0837 182.547 91.0107 192.053 91.436C199.283 91.7655 204.978 93.3708 211.234 95.6458L227.027 101.397L220.104 120.575C220.104 120.575 173.475 106.447 183.711 109.551C193.947 112.655 158.655 101.961 158.655 101.961H158.666Z" fill="#EFF4F6"/>
<path d="M140.237 132.854L145.826 117.514L223.047 142.06L215.33 163.407L140.237 132.854Z" fill="#EFF4F6"/>
<path d="M153.913 137.553L155.691 136.16L161.429 138.254C170.374 141.518 178.514 146.759 184.929 153.818C189.809 159.187 192.698 164.364 195.525 170.413L202.649 185.689L184.251 194.343C184.251 194.343 161.228 151.245 166.288 160.707C171.347 170.168 153.913 137.553 153.913 137.553Z" fill="#EFF4F6"/>
</svg>
