<svg width="765" height="148" viewBox="0 0 765 148" fill="none" xmlns="http://www.w3.org/2000/svg">
<path d="M582.509 124.739V23.2568H597.809L632.92 95.14L668.032 23.2568H683.332V124.739H667.466V59.6899L636.301 124.739H629.534L598.439 59.6899V124.739H582.503H582.509Z" fill="black"/>
<path d="M475.911 124.738L507.919 23.2566H532.806L564.814 124.738H547.329L518.284 33.6879H522.088L493.396 124.738H475.911ZM493.749 102.751V86.8924H547.052V102.751H493.749Z" fill="black"/>
<path d="M429.542 124.739V39.1864H396.686V23.2568H479.388V39.1864H446.532V124.744H429.542V124.739Z" fill="black"/>
<path d="M345.225 126.857C335.072 126.857 326.38 124.65 319.136 120.235C311.898 115.772 306.327 109.568 302.429 101.626C298.577 93.6853 296.646 84.4784 296.646 74C296.646 63.5215 298.571 54.3147 302.429 46.3734C306.333 38.4322 311.898 32.257 319.136 27.8361C326.374 23.3739 335.072 21.1428 345.225 21.1428C355.378 21.1428 364.077 23.3739 371.314 27.8361C378.599 32.2511 384.171 38.4322 388.022 46.3734C391.927 54.3147 393.876 63.5215 393.876 74C393.876 84.4784 391.927 93.6853 388.022 101.626C384.171 109.568 378.599 115.766 371.314 120.235C364.077 124.65 355.378 126.857 345.225 126.857ZM345.225 110.857C352.039 110.904 357.705 109.403 362.216 106.348C366.774 103.292 370.184 98.9951 372.439 93.4498C374.742 87.9045 375.896 81.4232 375.896 74C375.896 66.5768 374.742 60.1426 372.439 54.6914C370.184 49.1932 366.774 44.9194 362.216 41.8642C357.705 38.809 352.039 37.2372 345.225 37.143C338.412 37.0959 332.746 38.597 328.235 41.6523C323.724 44.7075 320.314 49.0048 318.011 54.5501C315.756 60.0955 314.625 66.5768 314.625 74C314.625 81.4232 315.756 87.8809 318.011 93.3792C320.267 98.8303 323.653 103.081 328.164 106.136C332.723 109.191 338.412 110.763 345.225 110.857Z" fill="black"/>
<path d="M209.2 124.739V23.2568H251.149C252.138 23.2568 253.404 23.3039 254.953 23.3981C256.502 23.4452 257.939 23.5865 259.252 23.822C265.13 24.7168 269.97 26.6653 273.775 29.6734C277.626 32.6815 280.471 36.4844 282.308 41.0878C284.187 45.6442 285.129 50.7185 285.129 56.3109C285.129 64.5818 283.039 71.6989 278.857 77.6622C274.676 83.5843 268.257 87.2458 259.611 88.6586L252.35 89.2944H226.19V124.744H209.2V124.739ZM267.509 124.739L247.486 83.443L264.759 79.6401L286.755 124.744H267.509V124.739ZM226.196 73.4355H250.448C251.39 73.4355 252.444 73.3884 253.622 73.2942C254.8 73.2 255.878 73.0117 256.867 72.7291C259.688 72.0227 261.896 70.7806 263.492 68.991C265.135 67.2073 266.29 65.1882 266.949 62.9277C267.656 60.673 268.009 58.4655 268.009 56.3051C268.009 54.1446 267.656 51.9371 266.949 49.6825C266.29 47.3807 265.141 45.338 263.492 43.5485C261.896 41.7648 259.688 40.5168 256.867 39.8104C255.878 39.5278 254.8 39.363 253.622 39.3159C252.444 39.2217 251.39 39.1746 250.448 39.1746H226.196V73.4237V73.4355Z" fill="black"/>
<path d="M77.6999 94.9748L87.3166 90.51L111.659 137.373L98.2933 143.611L77.6999 94.9748Z" fill="#4D28FF"/>
<path d="M81.8489 103.435L83.3056 103.621L84.99 107.224C87.6134 112.841 88.9596 119.003 88.6835 125.2C88.4695 129.913 87.427 133.626 85.9496 137.704L82.2148 148L69.7607 143.487C69.7607 143.487 78.9356 113.089 76.9198 119.762C74.9039 126.435 81.8489 103.428 81.8489 103.428V103.435Z" fill="#4D28FF"/>
<path d="M61.7871 91.4209L71.7489 95.0645L55.8086 145.405L41.9462 140.368L61.7871 91.4209Z" fill="#4D28FF"/>
<path d="M58.7357 100.337L59.6401 101.496L58.2801 105.236C56.1607 111.067 52.7572 116.374 48.1732 120.556C44.6869 123.737 41.3249 125.621 37.3967 127.463L27.4763 132.108L21.8568 120.114C21.8568 120.114 49.8439 105.105 43.6997 108.404C37.5555 111.702 58.7357 100.337 58.7357 100.337Z" fill="#4D28FF"/>
<path d="M53.0471 77.6677L57.5138 87.2804L10.6315 111.612L4.39069 98.2526L53.0471 77.6677Z" fill="#4D28FF"/>
<path d="M44.5834 81.8151L44.3969 83.2712L40.7933 84.9549C35.1738 87.5772 29.0089 88.9229 22.8094 88.6468C18.0943 88.4329 14.3802 87.3909 10.3001 85.9141L0 82.1808L4.51494 69.7319C4.51494 69.7319 34.9252 78.903 28.2495 76.888C21.5737 74.873 44.5903 81.8151 44.5903 81.8151H44.5834Z" fill="#4D28FF"/>
<path d="M56.6025 61.7614L52.9574 71.7192L2.59576 55.7854L7.62848 41.9287L56.6025 61.7614Z" fill="#4D28FF"/>
<path d="M47.6831 58.7114L46.5233 59.6154L42.7815 58.2559C36.948 56.1374 31.6392 52.7353 27.4556 48.1532C24.273 44.6684 22.3884 41.3077 20.5451 37.3812L15.899 27.4649L27.8974 21.8477C27.8974 21.8477 42.9127 49.8232 39.6128 43.6816C36.3129 37.5399 47.6831 58.7114 47.6831 58.7114Z" fill="#4D28FF"/>
<path d="M70.3613 53.0253L60.7446 57.49L36.4026 10.6272L49.7679 4.38892L70.3613 53.0253Z" fill="#4D28FF"/>
<path d="M66.2122 44.5649L64.7556 44.3786L63.0711 40.7764C60.4477 35.1592 59.1015 28.9969 59.3777 22.8C59.5917 18.0868 60.6341 14.3742 62.1115 10.2959L65.8463 0L78.3004 4.51308C78.3004 4.51308 69.1256 34.9108 71.1414 28.2378C73.1572 21.5648 66.2122 44.5718 66.2122 44.5718V44.5649Z" fill="#4D28FF"/>
<path d="M86.2741 56.5792L76.3123 52.9356L92.2526 2.59473L106.115 7.62536L86.2741 56.5792Z" fill="#4D28FF"/>
<path d="M89.3255 47.6633L88.4211 46.504L89.7811 42.7638C91.9005 36.9327 95.304 31.626 99.888 27.4442C103.374 24.2629 106.736 22.379 110.664 20.5365L120.585 15.8923L126.204 27.8858C126.204 27.8858 98.2173 42.8949 104.362 39.5963C110.506 36.2978 89.3255 47.6633 89.3255 47.6633Z" fill="#4D28FF"/>
<path d="M95.014 70.3322L90.5474 60.7194L137.43 36.3875L143.671 49.7473L95.014 70.3322Z" fill="#4D28FF"/>
<path d="M103.478 66.1848L103.664 64.7288L107.268 63.045C112.887 60.4227 119.052 59.0771 125.252 59.3531C129.967 59.567 133.681 60.609 137.761 62.0858L148.061 65.8191L143.546 78.268C143.546 78.268 113.136 69.0969 119.812 71.1119C126.487 73.1269 103.471 66.1848 103.471 66.1848H103.478Z" fill="#4D28FF"/>
<path d="M91.4587 86.2385L95.1038 76.2808L145.465 92.2146L140.433 106.071L91.4587 86.2385Z" fill="#4D28FF"/>
<path d="M100.378 89.2888L101.538 88.3848L105.28 89.7442C111.113 91.8627 116.422 95.2648 120.606 99.8469C123.788 103.332 125.673 106.692 127.516 110.619L132.162 120.535L120.164 126.152C120.164 126.152 105.148 98.1769 108.448 104.319C111.748 110.46 100.378 89.2888 100.378 89.2888Z" fill="#4D28FF"/>
</svg>
