<svg width="727" height="164" viewBox="0 0 727 164" fill="none" xmlns="http://www.w3.org/2000/svg">
<path d="M572.405 160.164V3.82764H595.865L649.703 114.566L703.54 3.82764H727V160.164H702.673V59.9543L654.886 160.164H644.51L596.831 59.9543V160.164H572.396H572.405Z" fill="white"/>
<path d="M408.955 160.164L458.033 3.82764H496.195L545.273 160.164H518.463L473.926 19.8975H479.76L435.765 160.164H408.955ZM436.307 126.292V101.861H518.038V126.292H436.307Z" fill="white"/>
<path d="M337.856 160.164V28.3678H287.477V3.82764H414.286V28.3678H363.908V160.173H337.856V160.164Z" fill="white"/>
<path d="M208.57 163.428C193.003 163.428 179.674 160.028 168.567 153.226C157.469 146.352 148.927 136.793 142.949 124.56C137.043 112.326 134.081 98.1423 134.081 81.9999C134.081 65.8574 137.034 51.6739 142.949 39.4401C148.936 27.2063 157.469 17.6931 168.567 10.8825C179.665 4.00836 193.003 0.571289 208.57 0.571289C224.138 0.571289 237.476 4.00836 248.574 10.8825C259.744 17.6841 268.286 27.2063 274.192 39.4401C280.179 51.6739 283.168 65.8574 283.168 81.9999C283.168 98.1423 280.179 112.326 274.192 124.56C268.286 136.793 259.744 146.343 248.574 153.226C237.476 160.028 224.138 163.428 208.57 163.428ZM208.57 138.779C219.018 138.852 227.705 136.54 234.622 131.833C241.611 127.126 246.84 120.506 250.298 111.963C253.829 103.42 255.599 93.4356 255.599 81.9999C255.599 70.5641 253.829 60.652 250.298 52.2543C246.84 43.784 241.611 37.2001 234.622 32.4934C227.705 27.7867 219.018 25.3653 208.57 25.2202C198.123 25.1477 189.436 27.4602 182.519 32.1669C175.602 36.8736 170.373 43.4938 166.842 52.0366C163.384 60.5794 161.65 70.5641 161.65 81.9999C161.65 93.4356 163.384 103.384 166.842 111.854C170.301 120.252 175.493 126.8 182.41 131.506C189.4 136.213 198.123 138.634 208.57 138.779Z" fill="white"/>
<path d="M-0.00196838 160.164V3.82764H64.3193C65.8364 3.82764 67.7778 3.90019 70.1527 4.04529C72.5277 4.11784 74.731 4.33549 76.7447 4.69824C85.7567 6.07669 93.1795 9.07846 99.0129 13.7126C104.919 18.3468 109.28 24.2052 112.098 31.297C114.978 38.3162 116.423 46.1335 116.423 54.7488C116.423 67.4905 113.217 78.4546 106.806 87.6413C100.395 96.7645 90.5517 102.405 77.2955 104.582L66.1614 105.561H26.0498V160.173H-0.00196838V160.164ZM89.4049 160.164L58.7026 96.5468L85.1878 90.6884L118.915 160.173H89.4049V160.164ZM26.0589 81.1299H63.2447C64.6896 81.1299 66.3059 81.0574 68.1119 80.9123C69.918 80.7672 71.5705 80.477 73.0875 80.0416C77.4129 78.9534 80.7992 77.0399 83.2464 74.283C85.7658 71.5351 87.5357 68.4245 88.547 64.9421C89.6306 61.4688 90.1725 58.068 90.1725 54.7398C90.1725 51.4115 89.6306 48.0107 88.547 44.5374C87.5357 40.9915 85.7748 37.8446 83.2464 35.0877C80.7992 32.3399 77.4129 30.4173 73.0875 29.329C71.5705 28.8937 69.918 28.6398 68.1119 28.5673C66.3059 28.4222 64.6896 28.3496 63.2447 28.3496H26.0589V81.1118V81.1299Z" fill="white"/>
</svg>
